<mxfile host="app.diagrams.net" modified="2024-02-09T08:25:39.692Z" agent="Mozilla/5.0 (X11; Linux x86_64; rv:122.0) Gecko/20100101 Firefox/122.0" version="23.1.2" etag="yprCfL1CXUHEWsAHgCQH" type="github">
  <diagram name="Page-1" id="gJCeHM2gV0pmozg1SszH">
    <mxGraphModel>
      <root>
        <mxCell id="0" />
        <mxCell id="1" parent="0" />
      </root>
    </mxGraphModel>
  </diagram>
</mxfile>
